<?xml version="1.0" encoding="UTF-8" standalone="no"?><!DOCTYPE svg PUBLIC "-//W3C//DTD SVG 1.1//EN" "http://www.w3.org/Graphics/SVG/1.1/DTD/svg11.dtd"><svg width="100%" height="100%" viewBox="0 0 401 401" version="1.1" xmlns="http://www.w3.org/2000/svg" xmlns:xlink="http://www.w3.org/1999/xlink" xml:space="preserve" xmlns:serif="http://www.serif.com/" style="fill-rule:evenodd;clip-rule:evenodd;stroke-linecap:round;stroke-linejoin:round;stroke-miterlimit:1.41421;"><g><path d="M341.264,59.53c-39.003,-39.003 -86.149,-58.527 -141.344,-58.527c-55.196,0 -102.342,19.524 -141.391,58.527c-39.003,39.049 -58.527,86.195 -58.527,141.39c0,55.196 19.524,102.342 58.527,141.345c39.049,39.049 86.195,58.573 141.391,58.573c55.195,0 102.341,-19.524 141.344,-58.573c39.049,-39.003 58.573,-86.149 58.573,-141.345c0,-55.195 -19.524,-102.341 -58.573,-141.39Z" style="fill:#1a69a4;fill-rule:nonzero;"/><path d="M199.92,1.003c-55.196,0 -102.342,19.524 -141.391,58.527c-39.003,39.049 -58.527,86.195 -58.527,141.39c0,55.196 19.524,102.342 58.527,141.345c39.049,39.049 86.195,58.573 141.391,58.573c55.195,0 102.341,-19.524 141.344,-58.573c39.049,-39.003 58.573,-86.149 58.573,-141.345c0,-55.195 -19.524,-102.341 -58.573,-141.39c-39.003,-39.003 -86.149,-58.527 -141.344,-58.527Z" style="fill:none;stroke:#fff;stroke-width:1.85px;"/><path d="M199.92,20.99c-49.691,0 -92.117,17.581 -127.233,52.698c-35.117,35.116 -52.698,77.542 -52.698,127.233c0,49.69 17.581,92.07 52.698,127.186c35.116,35.163 77.542,52.744 127.232,52.744c49.691,0 92.071,-17.581 127.187,-52.744c35.163,-35.116 52.744,-77.496 52.744,-127.187c0,-49.69 -17.581,-92.116 -52.744,-127.232c-35.116,-35.117 -77.496,-52.698 -127.187,-52.698l0.001,0Z" style="fill:none;stroke:#fff;stroke-width:5.55px;"/><path d="M208.618,56.477c0,-2.36 -1.157,-3.517 -3.517,-3.517l-10.363,0c-2.36,0 -3.517,1.157 -3.517,3.517l0,2.22c-3.932,0.602 -7.726,1.62 -11.335,3.054l3.979,32.895c0.046,0.463 -0.046,0.879 -0.324,1.203c-0.324,0.37 -0.694,0.556 -1.203,0.556c-0.509,0 -0.925,-0.139 -1.249,-0.463c-0.324,-0.324 -0.555,-0.694 -0.648,-1.157l-6.847,-30.027c-3.887,2.175 -7.542,4.858 -10.965,8.143c-10.272,9.947 -15.407,21.931 -15.407,35.949c0,0.417 0,0.787 0.046,1.157c-5.598,2.359 -8.374,5.043 -8.374,7.958c0,3.47 3.886,6.57 11.705,9.253c1.851,0.601 3.887,1.157 6.154,1.758c11.936,3.1 26.325,4.627 43.166,4.627c16.841,0 31.23,-1.527 43.121,-4.627c2.313,-0.601 4.395,-1.203 6.292,-1.804c7.726,-2.684 11.613,-5.737 11.613,-9.207c0,-2.915 -2.73,-5.552 -8.236,-7.912c0,-0.37 0,-0.786 0,-1.203c0,-14.019 -5.135,-26.002 -15.453,-35.949c-3.423,-3.285 -7.032,-5.968 -10.872,-8.143l-6.894,30.073c-0.092,0.463 -0.324,0.833 -0.694,1.157c-0.324,0.324 -0.694,0.463 -1.203,0.463c-0.509,0 -0.925,-0.185 -1.249,-0.555c-0.278,-0.324 -0.37,-0.741 -0.324,-1.203l4.071,-32.988c-3.655,-1.435 -7.448,-2.452 -11.474,-3.054l0,-2.174l0.001,0Z" style="fill:#fbbd08;fill-rule:nonzero;"/><path d="M212.828,214.986c0,-1.25 -0.509,-1.99 -1.481,-2.221l-22.763,-0.047c-0.971,0.232 -1.48,0.972 -1.48,2.221l3.331,16.24c0.139,0.879 0.601,1.388 1.48,1.573l16.101,0.046c0.879,-0.185 1.342,-0.694 1.481,-1.573l3.331,-16.239Z" style="fill:#bad2e4;fill-rule:nonzero;"/><path d="M208.479,238.72c-0.324,-1.018 -0.926,-1.573 -1.897,-1.712l-13.51,0c-0.786,0.185 -1.342,0.741 -1.619,1.666l-4.349,17.211l12.908,24.151l12.816,-24.105l-4.349,-17.211Z" style="fill:#bad2e4;fill-rule:nonzero;"/><path d="M200.336,291.418c-0.093,0 -0.185,0 -0.231,0.046c-0.139,-0.046 -0.324,-0.046 -0.463,-0.093c-0.879,-0.277 -1.805,-0.971 -2.869,-2.128c-6.338,-8.328 -11.89,-16.887 -16.748,-25.631c-1.018,-1.851 -1.99,-3.702 -2.961,-5.552c-10.086,-19.71 -16.517,-40.576 -19.34,-62.553c-55.288,14.019 -82.724,43.028 -82.4,86.935c-0.046,5.459 1.388,10.503 4.256,15.175c2.869,4.673 6.061,7.403 9.531,8.19l221.755,0.046c3.47,-0.787 6.663,-3.516 9.531,-8.189c2.869,-4.673 4.303,-9.716 4.257,-15.176c0.324,-43.907 -27.159,-72.916 -82.447,-86.934c-4.349,33.959 -17.35,65.189 -39.049,93.735c-1.064,1.157 -1.989,1.851 -2.822,2.129Z" style="fill:#8db4d2;fill-rule:nonzero;"/></g></svg>